<svg width="24" height="24" viewBox="0 0 24 24" fill="none" xmlns="http://www.w3.org/2000/svg">
<path d="M3.11133 6.44444H20.8891M9.778 10.8889V17.5556M14.2224 10.8889V17.5556M4.22244 6.44444L5.33355 19.7778C5.33355 20.3671 5.56768 20.9324 5.98442 21.3491C6.40117 21.7659 6.9664 22 7.55577 22H16.4447C17.034 22 17.5993 21.7659 18.016 21.3491C18.4328 20.9324 18.6669 20.3671 18.6669 19.7778L19.778 6.44444M8.66688 6.44444V3.11111C8.66688 2.81643 8.78395 2.53381 8.99232 2.32544C9.20069 2.11706 9.48331 2 9.778 2H14.2224C14.5171 2 14.7997 2.11706 15.0081 2.32544C15.2165 2.53381 15.3336 2.81643 15.3336 3.11111V6.44444" stroke="#767676" stroke-width="1.66667" stroke-linecap="round" stroke-linejoin="round"/>
</svg>
