<svg width="24" height="24" viewBox="0 0 24 24" fill="none" xmlns="http://www.w3.org/2000/svg">
<g id="mage:pen">
<path id="Vector" d="M2.77719 19.783L3.38419 15.621C3.42119 15.349 3.54519 15.096 3.73919 14.901L15.5002 3.12397C15.6527 2.96994 15.8422 2.85768 16.0506 2.79797C16.259 2.73825 16.4792 2.73309 16.6902 2.78297C17.7697 3.08189 18.7482 3.66723 19.5222 4.47697C20.3297 5.25624 20.911 6.23975 21.2042 7.32297C21.2541 7.53392 21.2489 7.75415 21.1892 7.96253C21.1295 8.17091 21.0172 8.36045 20.8632 8.51297L9.08919 20.275C8.89369 20.4682 8.6406 20.5924 8.36819 20.629L4.20719 21.236C4.01063 21.2646 3.81008 21.2466 3.62181 21.1833C3.43354 21.1199 3.26284 21.0131 3.12355 20.8715C2.98427 20.7299 2.88032 20.5574 2.82014 20.3681C2.75997 20.1788 2.74525 19.978 2.77719 19.782M13.2752 5.36397L18.6382 10.727" stroke="#767676" stroke-width="1.5" stroke-linecap="round" stroke-linejoin="round"/>
</g>
</svg>
