<svg width="90" height="90" viewBox="0 0 90 90" fill="none" xmlns="http://www.w3.org/2000/svg">
<circle cx="45" cy="45" r="45" fill="#F42E3D"/>
<path d="M34.0156 43H55M47.375 23.6217C47.7731 23.2236 48.313 23 48.876 23C49.439 23 49.9789 23.2236 50.377 23.6217C50.7751 24.0198 50.9987 24.5598 50.9987 25.1227C50.9987 25.6857 50.7751 26.2256 50.377 26.6237L38.367 38.6347C38.1291 38.8726 37.835 39.0467 37.512 39.1407L34.64 39.9787C34.554 40.0038 34.4627 40.0053 34.3759 39.9831C34.2891 39.9608 34.2098 39.9157 34.1464 39.8523C34.0831 39.7889 34.0379 39.7097 34.0156 39.6228C33.9934 39.536 33.9949 39.4448 34.02 39.3587L34.858 36.4867C34.9522 36.1641 35.1262 35.8704 35.364 35.6327L47.375 23.6217Z" stroke="white" stroke-width="2" stroke-linecap="round" stroke-linejoin="round"/>
<path d="M25.0039 51.8574V64.2168H23.5547V51.8574H25.0039ZM14.2441 60.5254C16.8008 59.0146 17.9766 57.0801 18.209 54.5918H14.873V53.3613H19.7129C19.7129 54.5576 19.5625 55.6787 19.2275 56.7246H20.9434V52.1582H22.3789V63.6289H20.9434V57.9414H18.7285C18.0107 59.3564 16.8486 60.5938 15.1055 61.6055L14.2441 60.5254ZM30.7652 54.8242C30.7516 57.0938 31.9479 59.3633 33.9508 60.2246L33.0484 61.4414C31.6266 60.7852 30.5875 59.4795 30.0133 57.8662C29.4459 59.6025 28.3795 61.0244 26.8824 61.7285L25.9527 60.457C28.0104 59.5684 29.2135 57.21 29.2203 54.8242V52.8555H30.7652V54.8242ZM34.8395 64.2305V51.8574H36.3707V64.2305H34.8395ZM47.7512 52.377V53.1973C47.758 54.0039 47.758 55.0293 47.4982 56.3145H49.132V57.5176H37.8391V56.3145H45.967C46.1926 55.1865 46.2268 54.3115 46.2336 53.5801H39.2336V52.377H47.7512ZM39.1379 59.6914V58.502H47.7375V61.8516H40.6691V62.9043H48.052V64.0938H39.1516V60.6895H46.2199V59.6914H39.1379ZM56.4848 54.2637C56.4848 55.4395 56.9838 56.8271 58.2006 57.6748C59.39 56.8408 59.8891 55.46 59.8891 54.2637V52.7871H61.4203V54.2637C61.4135 55.7607 62.1449 57.292 63.8266 57.9824L63.0062 59.1172C61.8373 58.6182 61.0717 57.7021 60.6479 56.5879C60.224 57.7432 59.4311 58.7549 58.1801 59.2812C56.9223 58.7549 56.1293 57.7227 55.7123 56.5605C55.2748 57.6611 54.5023 58.6045 53.3539 59.1172L52.5609 57.9824C54.1947 57.2646 54.9604 55.6787 54.9672 54.2637V52.7871H56.4848V54.2637ZM52.5609 62.6309V61.3867H63.8266V62.6309H52.5609ZM74.6328 51.8574V64.2168H73.1016V51.8574H74.6328ZM64.3926 60.8125C67.6328 59.2744 69.123 57.1826 69.3965 54.373H65.0215V53.1699H70.9414C70.9414 56.8477 69.5127 59.9717 65.1855 62.0293L64.3926 60.8125Z" fill="white"/>
<path d="M35 40L34.5 36L49 23L50.5 26L38.5 38.5L35 40Z" fill="white"/>
</svg>
